# Blender 3.5.1
# www.blender.org
mtllib Wall.mtl
o Cube.002
v -0.071678 1.001113 0.714390
v -0.071678 1.001113 -0.285610
v -0.071678 0.001113 0.714390
v -0.071678 0.001113 -0.285610
v 0.228322 1.001113 0.714390
v 0.228322 1.001113 -0.285610
v 0.228322 0.001113 0.714390
v 0.228322 0.001113 -0.285610
v -0.071678 2.001113 0.714391
v -0.071678 2.001113 -0.285609
v -0.071678 1.001113 0.714390
v -0.071678 1.001113 -0.285610
v 0.228322 2.001113 0.714391
v 0.228322 2.001113 -0.285609
v 0.228322 1.001113 0.714390
v 0.228322 1.001113 -0.285610
v -0.071678 3.001113 0.714391
v -0.071678 3.001113 -0.285609
v -0.071678 2.001113 0.714391
v -0.071678 2.001113 -0.285609
v 0.228322 3.001113 0.714391
v 0.228322 3.001113 -0.285609
v 0.228322 2.001113 0.714391
v 0.228322 2.001113 -0.285609
v -0.071678 4.001113 0.714391
v -0.071678 4.001113 -0.285609
v -0.071678 3.001113 0.714391
v -0.071678 3.001113 -0.285609
v 0.228322 4.001113 0.714391
v 0.228322 4.001113 -0.285609
v 0.228322 3.001113 0.714391
v 0.228322 3.001113 -0.285609
vn -1.0000 -0.0000 -0.0000
vn -0.0000 -1.0000 -0.0000
vn 1.0000 -0.0000 -0.0000
vn -0.0000 1.0000 -0.0000
vn -0.0000 -0.0000 1.0000
vn -0.0000 -0.0000 -1.0000
vt 0.255416 -1.743162
vt -0.001479 1.152400
vt -0.193394 0.997099
vt 0.740678 -1.743162
vt 0.997573 1.152400
vt 1.189488 0.997099
vt 0.255416 -1.257900
vt -0.001479 -0.228319
vt -0.193394 -0.001953
vt 0.740678 -1.257900
vt 0.997573 -0.228319
vt 1.189488 -0.001953
vt -0.001479 0.997099
vt 0.997573 0.997099
vt -0.001479 -0.001953
vt 0.997573 -0.001953
vt 0.255416 -1.743162
vt -0.001479 1.152400
vt -0.193394 0.997099
vt 0.740678 -1.743162
vt 0.997573 1.152400
vt 1.189488 0.997099
vt 0.255416 -1.257900
vt -0.001479 -0.228319
vt -0.193394 -0.001953
vt 0.740678 -1.257900
vt 0.997573 -0.228319
vt 1.189488 -0.001953
vt -0.001479 0.997099
vt 0.997573 0.997099
vt -0.001479 -0.001953
vt 0.997573 -0.001953
vt 0.255416 -1.743162
vt -0.001479 1.152400
vt -0.193394 0.997099
vt 0.740678 -1.743162
vt 0.997573 1.152400
vt 1.189488 0.997099
vt 0.255416 -1.257900
vt -0.001479 -0.228319
vt -0.193394 -0.001953
vt 0.740678 -1.257900
vt 0.997573 -0.228319
vt 1.189488 -0.001953
vt -0.001479 0.997099
vt 0.997573 0.997099
vt -0.001479 -0.001953
vt 0.997573 -0.001953
vt 0.255416 -1.743162
vt -0.001479 1.152400
vt -0.193394 0.997099
vt 0.740678 -1.743162
vt 0.997573 1.152400
vt 1.189488 0.997099
vt 0.255416 -1.257900
vt -0.001479 -0.228319
vt -0.193394 -0.001953
vt 0.740678 -1.257900
vt 0.997573 -0.228319
vt 1.189488 -0.001953
vt -0.001479 0.997099
vt 0.997573 0.997099
vt -0.001479 -0.001953
vt 0.997573 -0.001953
s 0
usemtl Material.001
f 1/1/1 2/4/1 4/10/1 3/7/1
f 7/15/3 8/16/3 6/14/3 5/13/3
f 9/17/1 10/20/1 12/26/1 11/23/1
f 15/31/3 16/32/3 14/30/3 13/29/3
f 17/33/1 18/36/1 20/42/1 19/39/1
f 23/47/3 24/48/3 22/46/3 21/45/3
f 25/49/1 26/52/1 28/58/1 27/55/1
f 31/63/3 32/64/3 30/62/3 29/61/3
usemtl Material.002
f 3/8/2 4/11/2 8/16/2 7/15/2
f 5/13/4 6/14/4 2/5/4 1/2/4
f 3/9/5 7/15/5 5/13/5 1/3/5
f 8/16/6 4/12/6 2/6/6 6/14/6
f 11/24/2 12/27/2 16/32/2 15/31/2
f 13/29/4 14/30/4 10/21/4 9/18/4
f 11/25/5 15/31/5 13/29/5 9/19/5
f 16/32/6 12/28/6 10/22/6 14/30/6
f 19/40/2 20/43/2 24/48/2 23/47/2
f 21/45/4 22/46/4 18/37/4 17/34/4
f 19/41/5 23/47/5 21/45/5 17/35/5
f 24/48/6 20/44/6 18/38/6 22/46/6
f 27/56/2 28/59/2 32/64/2 31/63/2
f 29/61/4 30/62/4 26/53/4 25/50/4
f 27/57/5 31/63/5 29/61/5 25/51/5
f 32/64/6 28/60/6 26/54/6 30/62/6
